<?xml version="1.0" encoding="UTF-8"?><svg id="Layer_1" xmlns="http://www.w3.org/2000/svg" xmlns:xlink="http://www.w3.org/1999/xlink" viewBox="0 0 128.23 31.56"><defs><mask id="mask" x="0" y="0" width="128.23" height="31.56" maskUnits="userSpaceOnUse"><g id="mask0_126_5136"><path d="m128.23,0H0v31.56h128.23V0Z" fill="#fff"/></g></mask></defs><g mask="url(#mask)"><g><path d="m91.45,12.29c-1.89,0-3.24.64-3.9,1.87l-.36.66v-2.21h-3.07v13.43h3.23v-7.99c0-1.91,1.04-3,2.84-3s2.71,1.07,2.71,2.92v8.07h3.23v-8.64c0-3.2-1.75-5.1-4.69-5.1Zm-15.67,0c-3.81,0-6.17,2.38-6.17,6.21v1.89c0,3.68,2.39,5.97,6.23,5.97,2.57,0,4.38-.94,5.51-2.88l-2-1.15c-.84,1.12-2.18,1.81-3.51,1.81-1.95,0-3.11-1.2-3.11-3.22v-.53h9.02v-2.23c0-3.57-2.34-5.86-5.97-5.86h0Zm3.03,5.92h-6.09v-.32c0-2.21,1.09-3.43,3.06-3.43s3.03,1.2,3.03,3.22v.54Zm49.43-7.81v-2.57h-11.18v2.57h3.92v13.06h-3.92v2.57h11.18v-2.57h-3.92v-13.06h3.92Zm-84.74-2.94c-4.99,0-8.09,3.11-8.09,8.12v2.71c0,5.01,3.1,8.12,8.09,8.12s8.09-3.11,8.09-8.12v-2.71c0-5.01-3.11-8.12-8.09-8.12Zm4.76,11.01c0,3.33-1.73,5.23-4.76,5.23s-4.75-1.91-4.75-5.23v-3.08c0-3.33,1.73-5.23,4.76-5.23s4.76,1.91,4.76,5.23v3.08Zm13.49-6.18c-1.7,0-3.16.7-3.93,1.88l-.35.53v-2.09h-3.07v18.05h3.23v-6.54l.35.51c.73,1.08,2.15,1.72,3.8,1.72,2.79,0,5.6-1.82,5.6-5.89v-2.28c0-2.93-1.73-5.89-5.63-5.89Zm2.39,8.02c0,2.16-1.26,3.51-3.29,3.51-1.89,0-3.21-1.42-3.21-3.45v-2.02c0-2.06,1.33-3.51,3.24-3.51,2.02,0,3.27,1.34,3.27,3.51v1.97Zm40.95-12.47l-6.52,18.2h3.28l1.25-3.9h7.5v.04s1.25,3.86,1.25,3.86h3.28l-6.53-18.2h-3.5Zm-1.19,11.74l2.94-9.2,2.91,9.2h-5.85Z"/><path d="m29.07,12.91c.72-2.15.47-4.5-.67-6.46-1.72-2.99-5.18-4.54-8.56-3.81C18.33.95,16.17-.01,13.91,0c-3.46,0-6.52,2.22-7.58,5.51-2.22.46-4.13,1.84-5.25,3.81-1.73,2.99-1.34,6.76.98,9.32-.71,2.15-.47,4.5.68,6.45,1.72,3,5.19,4.55,8.57,3.82,1.5,1.69,3.66,2.66,5.92,2.65,3.46,0,6.52-2.22,7.58-5.51,2.22-.46,4.13-1.84,5.25-3.81,1.74-2.99,1.34-6.76-.98-9.32Zm-11.86,16.58c-1.38,0-2.72-.48-3.78-1.37.05-.03.14-.07.19-.11l6.28-3.63c.32-.18.52-.52.52-.89v-8.86l2.65,1.53s.05.04.05.07v7.33c0,3.27-2.65,5.92-5.91,5.92Zm-12.7-5.42c-.69-1.2-.94-2.6-.71-3.96.05.03.13.08.19.11l6.29,3.63c.32.19.71.19,1.03,0l7.67-4.43v3.07s-.01.06-.04.08l-6.35,3.67c-2.83,1.63-6.44.66-8.08-2.16h0Zm-1.65-13.71c.69-1.2,1.78-2.12,3.08-2.59v7.47c0,.37.2.71.52.89l7.67,4.43-2.66,1.54s-.06.02-.09,0l-6.35-3.67c-2.83-1.63-3.79-5.25-2.16-8.08h0Zm21.81,5.08l-7.67-4.43,2.65-1.53s.06-.02.09,0l6.35,3.67c1.99,1.15,3.13,3.34,2.93,5.62-.2,2.29-1.7,4.25-3.85,5.04v-7.47c0-.37-.19-.71-.51-.9h0Zm2.64-3.98s-.13-.08-.19-.11l-6.29-3.63c-.32-.19-.71-.19-1.03,0l-7.67,4.43v-3.06s.01-.06.04-.08l6.35-3.67c1.99-1.15,4.46-1.04,6.34.27,1.88,1.31,2.83,3.59,2.44,5.85h0Zm-16.62,5.46l-2.66-1.53s-.05-.04-.05-.07v-7.33c0-2.29,1.32-4.38,3.4-5.36,2.08-.97,4.53-.66,6.29.81-.05.03-.13.07-.19.11l-6.28,3.63c-.32.18-.52.52-.52.89v8.86Zm1.44-3.11l3.42-1.97,3.42,1.97v3.94l-3.42,1.97-3.42-1.97v-3.94Z"/></g></g></svg>