<svg width="260" height="52" viewBox="0 0 260 52" fill="none" xmlns="http://www.w3.org/2000/svg">
<path fill-rule="evenodd" clip-rule="evenodd" d="M140.698 29.8556L110.224 1.2168V49.3821H119.302V22.6959L149.776 51.3347V3.16945H140.698V29.8556ZM70.0249 0.565918C55.7606 0.565918 44.7382 11.6309 44.7382 25.9503C44.7382 39.6188 56.409 51.3347 70.0249 51.3347C84.2893 51.3347 95.3117 40.2697 95.3117 25.9503C95.3117 11.6309 84.2893 0.565918 70.0249 0.565918ZM70.0249 42.2224C60.9476 42.2224 53.8155 35.0627 53.8155 25.9503C53.8155 16.838 60.9476 9.67827 70.0249 9.67827C79.1022 9.67827 86.2344 16.838 86.2344 25.9503C86.2344 35.0627 79.1022 42.2224 70.0249 42.2224ZM29.1771 25.9503C26.5835 23.9977 23.3416 22.6959 18.803 21.3941C9.72569 18.7906 9.72569 16.1871 9.72569 14.8853C9.72569 12.2818 12.9676 9.67827 17.5062 9.67827C21.3965 9.67827 24.6384 11.6309 25.9352 12.2818L26.5835 12.9327L33.7157 7.72562L33.0673 7.07474C33.0673 7.07474 27.2319 0.565918 17.5062 0.565918C12.9676 0.565918 8.42893 1.86768 5.18703 4.47121C1.94514 7.07474 0 10.98 0 14.8853C0 18.7906 1.94514 22.6959 5.18703 25.2994C7.78055 27.2521 11.0224 28.5539 15.5611 29.8556C24.6384 32.4591 24.6384 35.0627 24.6384 36.3644C24.6384 38.968 21.3965 41.5715 16.8579 41.5715C12.9676 41.5715 9.72569 39.6188 8.42893 38.968L7.78055 38.3171L0.648379 43.5241L1.29676 44.175C1.29676 44.175 7.13217 50.6838 16.8579 50.6838C21.3965 50.6838 25.9352 49.3821 29.1771 46.7785C32.419 44.175 34.3641 40.2697 34.3641 36.3644C34.3641 32.4591 32.419 29.2047 29.1771 25.9503ZM189.975 0.565918C175.711 0.565918 164.688 11.6309 164.688 25.9503C164.688 40.2697 176.359 51.3347 189.975 51.3347C204.239 51.3347 215.262 40.2697 215.262 25.9503C215.262 11.6309 203.591 0.565918 189.975 0.565918ZM189.975 42.2224C180.898 42.2224 173.766 35.0627 173.766 25.9503C173.766 16.838 180.898 9.67827 189.975 9.67827C199.052 9.67827 206.185 16.838 206.185 25.9503C206.185 35.0627 198.404 42.2224 189.975 42.2224ZM230.823 25.2994C233.416 27.2521 236.658 28.5539 241.197 29.8556C250.274 32.4591 250.274 35.0627 250.274 36.3644C250.274 38.968 247.032 41.5715 242.494 41.5715C238.604 41.5715 235.362 39.6188 234.065 38.968H233.416L226.284 44.175L226.933 44.8259C226.933 44.8259 232.768 51.3347 242.494 51.3347C247.032 51.3347 251.571 50.033 254.813 47.4294C258.055 44.8259 260 40.9206 260 37.0153C260 33.11 258.055 29.2047 254.813 26.6012C252.219 24.6486 248.978 23.3468 244.439 22.045C235.362 19.4415 235.362 16.838 235.362 15.5362C235.362 12.9327 238.604 10.3292 243.142 10.3292C247.032 10.3292 250.274 12.2818 251.571 12.9327L252.219 13.5836L259.352 8.3765L258.703 7.72562C258.703 7.72562 252.868 1.2168 243.142 1.2168C238.604 1.2168 234.065 2.51856 230.823 5.12209C227.581 7.72562 225.636 11.6309 225.636 15.5362C224.988 19.4415 226.933 22.6959 230.823 25.2994Z" fill="black"/>
</svg>
